/* XPM */
static char *_79d3ade17ae4fcdfd9a506f7cbfa085whRX864G0XZfMLvH[] = {
/* columns rows colors chars-per-pixel */
"64 64 151 2 ",
"   c gray27",
".  c #464646",
"X  c gray28",
"o  c #484848",
"O  c #494949",
"+  c gray29",
"@  c #4B4B4B",
"#  c #4C4C4C",
"$  c gray30",
"%  c #4E4E4E",
"&  c gray31",
"*  c #505050",
"=  c #515151",
"-  c gray32",
";  c #535353",
":  c gray33",
">  c #555555",
",  c #565656",
"<  c gray34",
"1  c #585858",
"2  c gray35",
"3  c #5A5A5A",
"4  c #5B5B5B",
"5  c gray36",
"6  c #5D5D5D",
"7  c gray37",
"8  c #5F5F5F",
"9  c #606060",
"0  c gray38",
"q  c #626262",
"w  c gray39",
"e  c #646464",
"r  c #656565",
"t  c gray40",
"y  c #676767",
"u  c #686868",
"i  c DimGray",
"p  c #6A6A6A",
"a  c gray42",
"s  c #6C6C6C",
"d  c #6D6D6D",
"f  c gray43",
"g  c #6F6F6F",
"h  c gray44",
"j  c #717171",
"k  c #727272",
"l  c gray45",
"z  c #747474",
"x  c gray46",
"c  c #767676",
"v  c #777777",
"b  c gray47",
"n  c #797979",
"m  c gray48",
"M  c #7B7B7B",
"N  c #7C7C7C",
"B  c gray49",
"V  c #7E7E7E",
"C  c gray50",
"Z  c #808080",
"A  c #818181",
"S  c gray51",
"D  c #838383",
"F  c #848484",
"G  c gray52",
"H  c #868686",
"J  c gray53",
"K  c #888888",
"L  c #898989",
"P  c gray54",
"I  c #8B8B8B",
"U  c gray55",
"Y  c #8D8D8D",
"T  c #8E8E8E",
"R  c gray56",
"E  c #909090",
"W  c gray57",
"Q  c #929292",
"!  c #939393",
"~  c gray58",
"^  c #959595",
"/  c gray59",
"(  c #979797",
")  c #989898",
"_  c gray60",
"`  c #9A9A9A",
"'  c #9B9B9B",
"]  c gray61",
"[  c #9D9D9D",
"{  c gray62",
"}  c #9F9F9F",
"|  c #A0A0A0",
" . c gray63",
".. c #A2A2A2",
"X. c gray64",
"o. c #A4A4A4",
"O. c #A5A5A5",
"+. c gray65",
"@. c #A7A7A7",
"#. c gray66",
"$. c #A9A9A9",
"%. c #AAAAAA",
"&. c gray67",
"*. c #ACACAC",
"=. c gray68",
"-. c #AEAEAE",
";. c #AFAFAF",
":. c gray69",
">. c #B1B1B1",
",. c #B2B2B2",
"<. c gray70",
"1. c #B4B4B4",
"2. c gray71",
"3. c #B6B6B6",
"4. c #B7B7B7",
"5. c gray72",
"6. c #B9B9B9",
"7. c gray73",
"8. c #BBBBBB",
"9. c #BCBCBC",
"0. c gray74",
"q. c gray",
"w. c gray75",
"e. c #C0C0C0",
"r. c #C1C1C1",
"t. c gray76",
"y. c #C3C3C3",
"u. c gray77",
"i. c #C5C5C5",
"p. c #C6C6C6",
"a. c gray78",
"s. c #C8C8C8",
"d. c gray79",
"f. c #CACACA",
"g. c #CBCBCB",
"h. c gray80",
"j. c #CDCDCD",
"k. c gray81",
"l. c #D0D0D0",
"z. c gray82",
"x. c #D2D2D2",
"c. c LightGray",
"v. c gray83",
"b. c #D5D5D5",
"n. c gray84",
"m. c #D7D7D7",
"M. c #D8D8D8",
"N. c gray85",
"B. c #DADADA",
"V. c #DDDDDD",
"C. c gray88",
/* pixels */
"y.c.M.b.M.M.b.M.M.M.c.' b.c.b.b.b.b.b.b.9.V j.M.c.b.M.c.c.b.j.{ F a.c.s.s.y.7.-. . . . .#.<.9.y.s.j.j.c.c.b.b.b.b.c.b.b.b.b.E @ ",
"a.4.-.9.j.j.a.j.s.s.4.V o. . . . . . . .~ 4 E  . . . . . .o.o.V F -.<.4.4.4.-. .o. . . . . . .o. . . . . . . .o. . .o. . . .D @ ",
"#. .{  . .{  .o. .o.' j ~ {  .o. . . . .{ s K  . .{  . . . . .F D { { o. . .o. . . . . . . . . . . . . . . . . . . . .{  . .Y , ",
" .o.o. . .o.o.{  . .{ m '  . . . . . . .' s F o.o. . .o. . . .D m {  .o. .{  .o. . . . . . . . .o. . . . . . . .o. . . .o. .F   ",
"o.{ {  . . . .o. .{ { V { o.o. . . .{  .~ p K  . . . . . . . .V p {  . .o.o. . . . . . . . . . . . . . . . . . . . . . .{ o.V % ",
" . .o.o. .{ { o.o.{ { V  . .o. .o.o.{ o.' s E  . . . . . . . .V 4 '  . . . . . . . . . .o.o.o. . . . . . . . . . .{  . .{ o.V % ",
"~  . . .o.o. . .o.{ ' m  . . . . . . . .' p Y {  . . . . . . .V 0 ' o. .{ {  .o. . . . . . .{ {  . . . . . . . .o. . . . . .V @ ",
"E  .o.{  . . . . . .' V  . .{  . .o.o. .' p K o. .{  .o. . . .D m {  .o. . .o. . . . . . . . .o. . . . . . . . . . . . .o.' F % ",
"K  . . . . . . . . .' m  . . . . .o. . .~ p K  . .o. . . . . .K j { o.o. . .o.o.o.o. . . . . . . . . . . . . . . .o. .o. . .F % ",
"D  . . . . . . . . .' m  . . . . .{  .o.' s E o.o. .{ { o. . .Y r j p j c p r s p j V K ~ {  . . . . . . . . . . .o. .o. . .D % ",
"V  . . . . . . . . .' m  . . . . .o. .o.' , , , 4 8 0 8 4 , 8 * 0 ~ o. .{  . . . . . . . . . .{  . . . . . . . . . . . . . .V @ ",
"V  . . . . . . . . .' m  . .o. .{ o.o.{ ' Y <.#.-.#. .o.7.s.a.' 0 ~ o.o.{ o.o. .o.o. . . . .o.o. . . . . . . . . . . . . . .m @ ",
"F  . .o. .{ { o. . .' m  . . . . .o.{  .' r D  .{ o.o.{ {  . .V D  . . . . .{  .{  . . . . . . . . . . . . . . . . . . . .o.D @ ",
"K o. . . .{ { o. . .' m  . . . .{ { o.#.E r K '  . . . . . .o.F D  . . . .o.o.o. .o.o.o.o. . . . . . . . . . . . . . . . . .K % ",
"F  . . . . . . . . .' m  . . . .o. .{  .' p K  .o.{ {  . . . .V K  .{  . . . . . . . .{  . . . . . . . . . . . . . . . . . .~ % ",
"F  . . . .o. . . . .' m  . . . . . . .o.~ p Y  . . .o.o. . .o.V j { o. . . . . . . . . . . . . . . . . . . . . . . . . .o. .{ % ",
"D  . . .m  .{ o.o.o.~ D {  .#.{ {  .{  .~ r Y  . . . .o.{  . .V 0 ' {  .o.{  .o.o. .o. .{  . . .o. . . . . . . . .o. .o. . .o.* ",
"V { o. .c o.o.{ {  . .V  . . . .o.o. . .~ p K o. . .{ o. .o. .D 8 ~ o.{  .{  . . .o.{  .o.o.o. .{  .o.o. . . . . . .{ o. .{ o.4 ",
"F { o. .D {  .o.o.#.E m  . .{  .{  .o.{ ~ j K  . . .{  . . .' m 0 ~ #. .o.o. . .{ #. . .o.{  .o. . . . . .o.o. . . .o.o.Y o.~ 8 ",
"j o.{ K ' o. . . . .j V  . . .o.#. . .o.' p K o. .o.{  .o.o.{ K 0 m V j r p m E { o. .{  .#.{ D j s p s V E  .o. . . . .Y j V 4 ",
", D V V m c K K V D 0 j m j j j j c j j p 8 E E { ~ F m c m V V p 0 8 8 0 0 8 0 r % 4 0 4 8 0 0 8 0 0 0 0 0 0 8 8 0 8 0 0 p 0   ",
", a.a.a.y.s.a.a.a.a.a.y.a.a.a.a.a.a.a.s.o.j -.j.y.a.a.a.a.a.a.y.a.a.a.y.y.y.y.a.y.E o.s.s.a.9.a.a.a.a.y.a.a.a.y.a.9.s.s.a.j.b., ",
"4  . . . .o. . .o. .o.{ { o. .{ o. .{  .' p K  .o. . . .{  .o.o. . . . . .o.o. .o.K ' o. .o.o. .o. . .o.#.#. .{ { o. .{  .#.E , ",
"* F o. . .{ o. .{ o.{ o. . . .o.{ o.o.{ ' j F  . .{  .o. . . . . . . .o. .{  . . .K Y  .o.{  . . . . . . . . .o. . . . .o. .D @ ",
"* {  . . . . . . .o.{  . . . . .o. . . .~ p K  . . . . . . . . . . . . . . . . . .K E { o. . . . . . . . . . . . . . .o.{  .D % ",
"*  . . . . . . .{ o. . . . .o.{  . .o.o.' p K  . . . . . . .o.o. . . . . . . . . .Y K  .o. . . . . . . . . . . . . . . . . .F @ ",
"* o.o. .o.o. .o.o. .{  . .{ o.o. .{  . .~ 0 K o. . . . . . . . . . . . . . . . . .Y D  . . . . . . . . . . . . . . . . . .o.~ % ",
"%  . .{  . .{  . .{  .o. . . . . . . .o.' r Y  . . . . . . . . . . . . . . . . .o.K c {  . . . . . . . . . . . . . . . . . . .* ",
"%  . . .o. . .o. .o.o.o.{ o. . .o.o. . .~ r Y  . . . . . . .o.o. . . . . . . . . .F p '  . .o. . . . . . . . . . .o. . . .{ o., ",
",  . . . . . . . . . . . .o.{ o. . .{ ~ F r Y o. . . . . . . . . . . . . . . . .' D p '  . . . . . . . . . . . . . . . . . .o.4 ",
"* E Y E E Y E E E Y Y K ~ ~ Y E Y E ~ E K j D Y Y Y E E E E E E E E E E E E E E Y m s '  . . . . . . . . . . . . . . . .o.o. ., ",
"% F D F D D F D D F m % p V F D D D D D V j s s s j c m V V V V D D D D D F F F F c j '  . . .o. . . . . . . . . . . . . . .~ % ",
"0 <.7.7.4.7.7.4.7.7.-.0 K <.7.7.7.7.7.4.<.#.o. .o.o.#.-.<.<.4.4.7.7.7.7.7.7.7.7.7.{ D { o.{ o. . .o. .{  . .{ o. . . . .o. .V % ",
"@ ~ {  . .{  . . . .' c  . .o. . . .o.o. . . . . . . .o.o. . . . . . . . . . . .o.Y Y  .o.{  . . . .o. .{  .{  . .o.{ o.{  .~ @ ",
", {  .o.o. . .o. . .~ m  .{ o. . . . . . . . . .o. . . . . . . . . . . . . . . .{ F '  .o. . . . .{ o. .{ o.o. . .o. .o.{  .o.% ",
"*  . . .{  . .{  .o.{ m { o.o. .o.o. . . . . . . . . . . . .o.o. . . . . . . . .o.F ~  . . . . .o.{  .Y ~ { o. . . .o. .o.o.{ * ",
"%  .o. . .o.o. . . .~ V  . . . . . . . . . . . . . . . . . . . .o.o.o.o.o.o.o.o.o.K K  . . . . . .o. .K { {  . . . .o. . . .' * ",
"%  . . . . .{ o.o.o.K m  .{ o.o. . . . . . . . .o.o. . . . . . . . . . . . . . . .Y F  .o. . . . . .Y K o.o.o.{  . . .o. .o.#.* ",
"*  . . .o. .{  .{ o.E V  . .o.{  . . . . . . . . . . . . . . . . . . . . . . . . .Y F ' o. . . .o.{ j F {  .o. . .o.{ o. .o.{ * ",
"%  . .{  .o.o. . . .{ D {  .{ o.o. . . . . . . . . . . . . . . . . . . . . . . . .Y D K {  . .o. .{ m  . . . . . .o. . .o. .m @ ",
", o.{ o. . . . . . .' c ~ K c m Y ' o. .{ o.o. . . . . . . . . . . . . . . . . . .Y r p E ~ ~ E ~ s j ~ ' E ~ E ~ ~ ~ E Y p 4 @ ",
"4 9.7.<.7.7.<.7.4.#.s r E {  . .{  .o. . . . . . . . . . . . . . . . . . . . . .' m , K ' { ' {  .' ' { ~ ' { ' ' ' { ~ ~ E F @ ",
", -.9.7.7.7.4.<.4.<.c c { o.o. .o. . . . . . . . . . . . . . . . . . . . . . . .{ V E 4.4.7.7.a.y.y.9.4.4.4.4.7.s.b.C.V.M.b.y., ",
"8 { o.{  .{ { o.o.o.~ m o. .{ o. .{ {  . . . . . . . . . . . . . . . . . . . . .o.K #.-. .{  .#.#.o.{  .o. .{ o.o.#.#.#.o.-.#.@ ",
"@ D ' o. . .#.{  .{ { j  . . .o. . . . . . . . . . . . . . . . . . . . . . . . .o.F c '  . .o.{  . . . . . . . . . . .o. . . .% ",
"*  . .{ o. .{ o. .o.' j o. . .{  .o. . . . . . . . . . . . . . . . . . . . . . .{ Y D o.{ {  .o. . .o.o. .o.o. . . .{ {  . .{ , ",
"%  . .o. . . . . .o.E s  . .o.o. . . . . . .o.o. . . . . . . . . . . . . . . . . .Y Y { o.#. .{ o.{ {  . . . . . . .o. .o.o.~ % ",
"*  .{ o.{  .o. .o.{ Y p  . . . .o. . . .o. . . . . . . . . . . . . . . . . . . .o.E F  . .{ o. . .o.o. . . . . . .{ o.{  . .~ * ",
"* ' o.o. .o.{ o. . .F 0  . .o. . . . . .o.o. . .o. . . . . . . . . . . . . . . . .{ F ' o. .{ o. . . . . . . . . . . . . .{ ' % ",
"@ #.{ { o. . . .o.#.Y r  .o.{  . . . . .{ {  . . . . . . . . . . . . .o.o.{ { {  .{ V E  .o. .{  . . . . . . . . . . . .o.{ ' % ",
", { o. .{ { { o.{  .c 8 ~ ' ~ ~ E ' {  . . . .o.o. .{ ~ E E ~ '  .o. .{  .o.~ m ' E p c Y  .o.o. . . . . . . . . . . . .o. .' % ",
", D K F D F V V F D j * 0 r , 8 4 0 s c m m c c c j r 8 4 4 8 0 j c m m m m m m s j 0 m Y { { '  . . . . . . . . . . . .o. .{ % ",
"8 #.#.{ ~ K Y E F E E E ~ ~  .{ {  . .o.o.o.o.o.o.o.o.o. . .o.o.o.#.#.o.{ ' { o.o. .E '  . . .o. . . . . . . . . . . . .o. .{ * ",
"r ' o.o.#.o. .{ o.{ o.o.o.-.#.o.#.#.#.o.o.o.o.#.o.#.#.#.#.#.#.#.o.#.#.o.#.#.#. .o. .' {  . . . . . . . . . . . . .o. . .o. .{ * ",
"r D  . . . . .o. .o. . .{ ' o. . . . . . . . . . .o. . . . . . .o. . .o. .' { #.o. .{  .o. . . . . . . . . . . . .o. . . . .{ * ",
"j { o.{ o. . .{  . . . .o. .{  . . .o.o. . . . . . . . . . . . . . .o. . .o. .{  . . . . . . . . . . . . . . . . .o. . . . .{ % ",
"s {  .o. .o. . .o. . . . .o. . . .o. . . . . . . . . . . . . . . . . . . . . . . . .Y ' o. . .o. .o.o. . . . . . .o.{  . .{ F % ",
"s o. . . . .{ o. . .o. . .{  . . . . . . . . . . . . . . . . .o. . . . .{ {  .o. .o.D {  . . .o. . .o.o. . . . . .o. .o. . .K % ",
"p {  .o.{  .o.'  . . . . . . . . . .o. . . . . .o.o.o.o. . . . . . . .o.o.o.o. .{ o.m '  . . . . . . . . . . . . . . . .{ o.E , ",
", j p j j c E  .o. . . . . . . . . . . . . . . . . . . . . . . . . .o. .{ {  . .o.{ V Y #. .o. . . . . . . . . . . . . . .#.~ 8 ",
"4  . .{ o.{ { o. . .o.o. . . .o.o. . . . .o.o.{  . .o.o. . . . . . . . .o.o.o. .o.K j j { { o. .o.o.o. . . . . . . . . .{  .K * ",
"@ ~ #.{  .o.o. . . .{  . . . . . .{  .o.{ {  . . . . . . . . . . . . . . . . . .{ V 0 r K {  . . .{ ' ~ ~ E Y Y K F K K F K c * ",
"% p K { ~ D V m m m V K ~  .o.o.o. .o.' F m V m o.o. .~ Y D V m V E o.o.~ D m m s 0 @ * 0 j c j p r 0 8 4 4 , , , * * * * , *   ",
"  @ % % % @ @ % % @ @ % % * * % * % * * @ @ % @ % % * * % % % % @ % % * * % % % @ %   % @   %   @ @       @ @       @     @ @ @ "
};
