/* XPM */
static char *fe3f2b238ce347bef82d097f6b1f5c14VvNoeVGnVmVczsWa[] = {
/* columns rows colors chars-per-pixel */
"64 64 201 2 ",
"   c #161616",
".  c gray9",
"X  c #181818",
"o  c gray10",
"O  c #1B1B1B",
"+  c gray11",
"@  c #1D1D1D",
"#  c #1E1E1E",
"$  c gray12",
"%  c #202020",
"&  c gray13",
"*  c #222222",
"=  c #232323",
"-  c gray14",
";  c #252525",
":  c gray15",
">  c #272727",
",  c #282828",
"<  c gray16",
"1  c #2A2A2A",
"2  c gray17",
"3  c #2C2C2C",
"4  c #2D2D2D",
"5  c gray18",
"6  c #2F2F2F",
"7  c gray19",
"8  c #313131",
"9  c #323232",
"0  c gray20",
"q  c #343434",
"w  c #353535",
"e  c gray21",
"r  c #373737",
"t  c gray22",
"y  c #393939",
"u  c #3A3A3A",
"i  c gray23",
"p  c #3C3C3C",
"a  c gray24",
"s  c #3E3E3E",
"d  c #3F3F3F",
"f  c gray25",
"g  c #414141",
"h  c gray26",
"j  c #434343",
"k  c #444444",
"l  c gray27",
"z  c #464646",
"x  c gray28",
"c  c #484848",
"v  c #494949",
"b  c gray29",
"n  c #4B4B4B",
"m  c #4C4C4C",
"M  c gray30",
"N  c #4E4E4E",
"B  c gray31",
"V  c #505050",
"C  c #515151",
"Z  c gray32",
"A  c #535353",
"S  c gray33",
"D  c #555555",
"F  c #565656",
"G  c gray34",
"H  c #585858",
"J  c gray35",
"K  c #5A5A5A",
"L  c #5B5B5B",
"P  c gray36",
"I  c #5D5D5D",
"U  c gray37",
"Y  c #5F5F5F",
"T  c #606060",
"R  c gray38",
"E  c #626262",
"W  c gray39",
"Q  c #646464",
"!  c #656565",
"~  c gray40",
"^  c #676767",
"/  c #686868",
"(  c DimGray",
")  c #6A6A6A",
"_  c gray42",
"`  c #6C6C6C",
"'  c #6D6D6D",
"]  c gray43",
"[  c #6F6F6F",
"{  c gray44",
"}  c #717171",
"|  c #727272",
" . c gray45",
".. c #747474",
"X. c gray46",
"o. c #767676",
"O. c #777777",
"+. c gray47",
"@. c #797979",
"#. c gray48",
"$. c #7B7B7B",
"%. c #7C7C7C",
"&. c gray49",
"*. c #7E7E7E",
"=. c gray50",
"-. c #808080",
";. c #818181",
":. c gray51",
">. c #838383",
",. c #848484",
"<. c gray52",
"1. c #868686",
"2. c gray53",
"3. c #888888",
"4. c #898989",
"5. c gray54",
"6. c #8B8B8B",
"7. c gray55",
"8. c #8D8D8D",
"9. c #8E8E8E",
"0. c gray56",
"q. c #909090",
"w. c gray57",
"e. c #929292",
"r. c #939393",
"t. c gray58",
"y. c #959595",
"u. c gray59",
"i. c #979797",
"p. c #989898",
"a. c gray60",
"s. c #9A9A9A",
"d. c #9B9B9B",
"f. c gray61",
"g. c #9D9D9D",
"h. c gray62",
"j. c #9F9F9F",
"k. c #A0A0A0",
"l. c gray63",
"z. c #A2A2A2",
"x. c gray64",
"c. c #A4A4A4",
"v. c #A5A5A5",
"b. c gray65",
"n. c #A7A7A7",
"m. c gray66",
"M. c #A9A9A9",
"N. c #AAAAAA",
"B. c gray67",
"V. c #ACACAC",
"C. c gray68",
"Z. c #AEAEAE",
"A. c #AFAFAF",
"S. c gray69",
"D. c #B1B1B1",
"F. c #B2B2B2",
"G. c gray70",
"H. c #B4B4B4",
"J. c gray71",
"K. c #B6B6B6",
"L. c #B7B7B7",
"P. c gray72",
"I. c #B9B9B9",
"U. c gray73",
"Y. c #BBBBBB",
"T. c #BCBCBC",
"R. c gray74",
"E. c gray",
"W. c gray75",
"Q. c #C0C0C0",
"!. c #C1C1C1",
"~. c gray76",
"^. c #C3C3C3",
"/. c gray77",
"(. c #C5C5C5",
"). c #C6C6C6",
"_. c gray78",
"`. c #C8C8C8",
"'. c gray79",
"]. c #CACACA",
"[. c #CBCBCB",
"{. c gray80",
"}. c #CDCDCD",
"|. c #CECECE",
" X c gray81",
".X c #D0D0D0",
"XX c gray82",
"oX c #D2D2D2",
"OX c LightGray",
"+X c gray83",
"@X c #D5D5D5",
"#X c gray84",
"$X c #D7D7D7",
"%X c #D8D8D8",
"&X c gray85",
"*X c #DADADA",
"=X c gray86",
"-X c gainsboro",
";X c #DDDDDD",
":X c gray87",
">X c #DFDFDF",
/* pixels */
"P Q R m [ Q D x.U.D.|..X[.#X&X.X|.&X|.=./ $.i.8.U._.D.[ R O./ [ m H m m m H C H H C D R H -.w.=.C m D ,   $   H P R { #X6.R D m ",
"Q C R.|.[.|.K.^.K.R.N.a.8.8.N.D._.^.^..XR._.[.x.D.f.f.R..X[ C b i 3 Q |.|.c.c.D.a._.D.U.^.[.R.R.|..X.X&X;X#X&X.X#X|._.^.^.U.m H ",
"P a.c.a.w.6.1.8.{ f.w.{ O.Q / -.6./ =.{ $.8.=.6.w./ -.i.c.R.6.{ [ $.x.K.f.{ $.N.Z.K.U.U.i.-.$./ 8.1.c.8.1.K._.D.a.a.a.8.f.R.R.b ",
"b 8.a.8.$.1.$.=.=.6.-.i.i.O.[ =.a.=.=.i.O.R [ { { O.{ [ 1.K.U./ D -.=.8.a.w.D.O.P j O.[ $.8.O.R / / O.O.{ [ O.6.w.$.O.=.R 6.D.H ",
"P -.=.-.-.[ 6.-.$.{ $.-.{ =.$.[ =.i.6.-.6.=.{ -.O.$.-.w.O.a.K.D N.^.w.$.O.$.Q 6.O.{ { Q / P 1.8.O.[ H O.$.O.$./ / 1.$.=.6.6.N.Z.",
"/ Q $.w.8./ / =.=.w.$.w.6.1.i.=.1.=.O.=.a.1.1.$.O.R D { -.=.a.m C / -.[ $.-.-.H -.=.1.1.O./ O.$.O.1.O./ P { [ =.[ Q $.{ 6.[ 8.K.",
"m { w.$.=.8.-.1.O.w.O.$.6.-.1.[ [ O.=.i.O.$.8.6.8.w.{ $.Q -.N.-.m { { { [ =.6.w.{ { [ Q Q =.$.$.[ Q R -.$.[ R [ [ / 1.-.[ [ =.$.",
"b H 8.1.i.6.i.1.R [ O.=.=.P O.$.=.O.{ -.$.[ Q -.1.6.O.-.6.Q f.N.[ [ a.$.$.=.=.6.6.R O.=.$.{ R [ { -.[ { -.-.Q H [ Q 6.w.=.{ a.-.",
"j j -.O./ O.-.$.1.=.8.$.6.-.$.{ $.$.{ w.{ $.O.=./ i.=.{ -.$.-.w.b D 8.8.6.=.-.-.=.1.[ O.{ -.8.8.=.O./ Q $.6.6.-.=.R { -.6.=.=.{ ",
"b p m 6.=.$.8.1.8.8.=.$.-.$.Q w.1.-.{ [ O.i./ O.R O.i.=.$.{ D b m p C i.8.$.$.O.{ =.O.=.$.Q Q / -.-.1.Q / =.1.{ O.O.O.R { [ $.Q ",
"Q z , r b p p z m p 9 r i i m i b b { Q C R P { Q H / [ [ 6.Q m D 9 r b =.a.i.1.6.1.$.Q =.O.=.O.=.[ H [ H H R m m 9 C R r r j R ",
"R R Q 3 * , p j * * * $ 3 9 $ O $ * O i 3 > p i b b j 3 i H D m C H C i 3 , 3 i r , , r , 3 r 9 i i j b r 3 > * * $ $ * $ D C H ",
"m C [ f.N.f.N.Z.|..XR.8.C C -.a.Q C H Q P P C D D b C C x.6.O.O.C b j C C z m C C Q Q m z 3 , j * z 9   , C C b b C b H 1.P / C ",
".X_.D._.|.U.U.^.Z.^..XR.|..X^._.[.^..XU.N.R P P R P [.R.K.[.[.U.K._.[.#X&X.X#X#X&X.X.X.X#X#X&XU.&X&X#X&X;XU.b R R C f.[.Z.R._.|.",
"1.O.1.6.i.w.8.6.f.8.6.Z.Z.K.Z.8.w.N.i.R.R.K.C D C w.=.$.1.$.$.8.8.x.=.w.w.a.a.x.f.f.i.Z.i.N.K.Z.D.K.R.c.f.[.K.D H -.-.{ 8.O.Q Q ",
"[ =.=.[ -.1.O.$.$.8.w.=.w.=.1.$.O.[ O.O.c.U.=.H Q O.-.1./ $.1.1.1.O.8.-.=.-.{ -.=.O./ Q { $.8./ / 8.w.w.O.f.^.1.[ i.=.O.6.=.O./ ",
"=.{ O.-.-.1.O.{ O./ P Q / =.$.1.8.w.8.1.i.D.Z.m 8.1.6.O.w.1.O.{ $.1.[ R P w.i.=.{ 6.6.$.Q { R -.{ Q [ 8.6.$.x.N.H 8.1.Q [ 8.6.-.",
"O.O.P { 8.=.$.{ =.=.6.f.8.w.-.O.=.Q R { $.f.Z.C R / O.{ [ { 1.$.{ =.O.6.Q / 8.$.O.R P 6.{ 1.$.{ =.O.1.=.$.-.=.a.m R 1.O.P [ { [ ",
"R $.-.R H -.i.{ { / [ / { =.$.1.8.i.a.=./ 1.8./ [ 1.O.=.6.$.w.-.{ 8.[ =.-.[ / O.$.8.1.O.O.O.{ [ $.R =.w.-.=.w.8.m Q =.=.-.-.6.-.",
"{ O.Q $.$.$.-.-.1.O.=.O.i.i.$.=.=.O.{ -.$.=.w.D / [ 1.[ Q H O.i.=.6.-.=.$.=.R w.$.O.8.-.i.$.=.6.6.Q [ =.1.6.a.N.H m O.6.O.[ 6.8.",
"8.8.=.6.$.O.{ / { { O./ R / $.6.=./ -.-.{ / O.m R { =.O.6.[ Q / $.=.[ 1.w.1.-.-.8.[ $.-.=.O.=.=.1.=.P Q =.8.a.c.b R 8.8.1.-.[ a.",
"8.a.a.8.1.=.{ 1.6.i.{ $.$.1.-./ -.i.1.[ $.D H j b m { $.O.1.6.O.$.1.1.$.i.1.=.$.1.-.O.$.[ O.6.$.O.O.{ [ [ / $./ b P 6.8.1.a.6.w.",
"{ { / w.w.-.8.-.Q 6.O.=.=.1.w.w.6.=.6.O.$.R D m p m P O./ / 6.1.-.-.-./ [ O.1.{ =.{ $.w.w.$.6.-.8.i.=.-.O.C $.R H z D { Q / -.$.",
"b [ H R P C m H Q R R R P P Q P H m [ D j z m m D 9 i D Q m C C b z C H D { -.{ O.-.-.{ =.=.-.-.R C r m 9 m P H D r 3 j H m j z ",
"r * > i 9 j j b z 3 , r m 3 , r , b R i j R H m D z > , i , i > j r > * j r , 9 9 9 p z i p , r 3 * 3 i m H b m D D 9 r * * > > ",
"D C j m C D P D D r 9 > r i i 9 3 z P / / C Q C D m H C D P R R C p C P C Q H z b   $ > > $ i i H w.[..X_.6.D P Q C m z m D z D ",
"x.[..X#X.XR.#X#X#X&X|.&XK.;X#X#X^.D..X|.#X.X|.|.#X#X#X;X.X.X#X.X#X|.^._.P z R P z / U._.;X.X;X.X[.[._._.R.|.[..X^.[.R D D C D m ",
"Z.N.Z.D.U.x.Z.U.R.K.U.c.Z.x.K.D.Z.c.N.Z.i.c.c.c.1.D.Z.i.w.c.f.c.c.Z.N._.^.c.b C m x.N.R.K.x.N.N.a.$.6.w.f.f.Z.a.D.K.U._.R D z w.",
"w.O.Q P $.=.1.O.=.$.=.O.O.$.$.1.6.O.=.=.-.[ i.8.a.-.-.a.-.O.{ $.=.$.=.$.c.U.R C w.a.w.Q =.-.i.1.=.{ Q D { =.8.8.$.$.f.x.x.j D 1.",
"O.=.O.{ O.$.1.{ { 6.i.-.$.-./ 1.i.1.-.-.1.-.{ i.1.1.=.6.8.=.O.=.{ / / { O.a.D.m / [ { / O.[ O.[ Q 8.1.$.R Q C Q $.{ $.c.U.b H O.",
"/ =.{ 6.6.$.6.6.-.[ 8.1.O.-.8.$.=.8.8.6.i.8.{ a.w.w.8.{ -.8.O./ Q Q R / { 8.c.D m [ 6.Q O.{ -.8.w.{ Q [ -.=.Q / $.[ { -.N.=.b C ",
"/ 1.{ =.=.$.O.[ =.$.O.[ i.{ -.$.{ Q $.=.6.8.$.=.$.6.=.O.$.{ w.8.-.-.{ / 1.a.=.D H O.=./ =.Q 8.6.O.O.$.$.[ O.[ -.O.P { 8.x.1.D P ",
"1.[ $.8.$.6.[ 1.1.8.i.[ 1./ [ =.O.{ O.$.-.$.{ { [ -.w.8.$.6.-.i.8.a.8.=.8.8.Z.O./ $./ / $.H / -.-.6.-.-.O.[ { [ w.1.6.6.c.-.D 1.",
"O.6.{ Q / { =./ { { 8.-.w.O.[ $.w.$.H P / { $.R O.[ R H { { O.1.6.1.O.$./ =.O.D / w.a.O.=.O.Q O.=.-.$.=.1.6.1.=.-.O.{ 1.w.$.z D ",
"P P O.$.-.O.[ { 1.-.=.{ { $.=.Q O.$.-.$.-.{ $.-.w.w.6.1.$.O.O./ [ $.$.1.=.1.H j b R O.-.-.-.=.H [ [ -.{ 1.[ { =.-.$.{ -.{ D p b ",
"m [ Q R / [ $.=.1.O.{ O./ $.$.O.$.6.8.6.{ -.i.{ -.8.8.i.{ -.-.{ [ 6.-.Q C b z b r z { =./ =.8.O.{ R 1.{ P / P / H { / P D H H b ",
"j [ { -.Q R { m D C [ =.Q [ b D P j C m z j z P b m D H C C P [ / R P H H P P D 3 9 p p i 9 r z z C D R O.O.{ { P D j b H P D i ",
"3 * * , 3 , $ $ O > > 3 3 j 9 , , > * * > * > , z , > 9 b z r 3 z P Q i R Q C C m D j $ , 9 * > * * m 3 9 3 > 9 3 b m D R P C D ",
"m D P C z D H H 8.1.P P H R R H H R R R P P D C [ / P Q H H j , , * C D R R { 6.x.R._..X.XU..X[.U.-.H P Q R D C H p j m m H Q R ",
"[.|.|.|..X#XK.D._.R.|.|._..X^.#XR.m D m D b [.K.c..X.X#X#X_.K.Z.^.&X|.#XK.Z.f.R.Z.N.R._.R.D._._._..XR..X|.#X|.z b C b z N.[.U.^.",
"x.f.x.f.f.a.f.w.a.-.$.a.c.x.c.K.R.#Xm m C U.8.x.i.i.i.c.c.Z.K.D.Z.x.f.x.f.x.i.1.f.x.1.-.f.O.[ =.[ -.i.=.w.x.Z.|.w.P P D.U.a.x.x.",
"1.6.1.8.-.{ =.-.1.=.1.6.{ [ O.O.i.a.D.D w.f.8.[ =.{ [ O.O.[ { 6.[ 6.1.=.{ $.1.$.Q [ [ R Q -.Q =.=./ -.-.{ [ $.c.R.H $.w.O.R Q -.",
"6.i.w.$.a.=.=.$.1.1.6.$.O.=.$./ 1.N._.H P [ / Q =./ 8.$.w.-.H w.{ { $.1./ R O.8.Q R P C { [ P Q Q [ R H / O./ -.w.i.{ O.6.i.=.8.",
"1.-.8.8.w.w.-.-.=.O.-.=.=.O.8.O.{ -.N.m R / $.{ R / / O.O.R O.O.1.6.$.w.a.=.[ =./ 6.[ O.Q $./ / [ R { O.Q $.-.w.c.i.C D { =.6.=.",
"O.$.{ { $.w.-.w.w.6.[ 1.i.Q [ O.{ -.6.D $.O.1.w.=.f.1.8.-.1.=.$.O.$.$.[ / 6.1.1.1.$.$.R b / $.[ 8.O.$./ O.6.{ =.8.8.z / 6.=.w.-.",
"-.-.$.$.O.1.a.8.$.=.w.$.O.a.=.-.{ 6.x.H Q Q =.6.{ -.=.=.-.1.6.-.1.1.O.-.8.w.$.1.-.=.i.8.[ R R Q -.-.=.=.-.O.{ { i.1.b { 1.=.{ { ",
"{ 6.6.a.6.{ $.6.1.w.-.-.1.w.-.$.=.Q a.C p Q 1.1./ { 1.=.8.=.O.O.{ w.Q Q P { 6.[ =.-.{ R P D / / Q 8.1.-.1.-.w.{ $.-.z z =.=.1.[ ",
"O.$.i.6.8./ =.1.=.$.8.$.Q R R / 8.f.P R p C $.8.O.P $.$.R [ [ { [ { O.$.{ =.R / / -.1.[ O.{ i.8.{ O.[ { -.=.{ $.P P p j / $.[ =.",
"$./ H -.O.1.-.-.$.w.=.$.i.H a.1.w.a.{ i p j p P a.1.R -.6.1.=.$./ O.{ =.[ [ 1.[ z i C R 9 z R / / O./ -.P D z r j C m p p O.O.{ ",
"/ D m i i j D m / [ $.D $.=.R R D D P z z , $ 3 p 9 j 3 3 3 , 9 r 3 R i p , $ p r $ i j z 3 j z C z p i 9 3 > j H D b z 3 r D =.",
"> > * * > , O , 3 9 i j j m m > 9 C { [ / D m 9 O O * * * * p * $ 3 i P Q P R [ / P D R / z * 3 p $ O O * m C C m D Q P b > $ 3 ",
"b D $.Q m z D m m m D C D H H D O.D.U.x.f.K..XK.#X|.K.R.c.&X&X|.K.D.U..X[..X^.|.{ P { R [ D / f.f.R.#X&X#X#X[.H C m z H H C D C ",
".X[.[..X|..X.XD.|..X|.|.#X|.#X|.U._.K.|.|.R.Z.U.U.a.D.Z.U.x.6.K.D.x.f.w.Z.f.K.^._.b R j D |.[.Z._.[._.N.w.R._.|.R H b m D H |.|.",
"w.f.f.a.c.w.x.D.D.Z.=.$.-.=.-.i.x.i.=.$.-.8.[ $.6.[ O.-.=.O.=.-.i.{ [ H [ [ { 6.i.x.P / Z.$.=.O.$.6.w.w.i.6.w.f._.C H D z x.x.1.",
"$.-.1.w.-.6.-.{ 6.-.$.w.1.1.-.=.=.-.8.O.O.$./ P 1.8.[ Q =.1.=.=.$.6.P =.$.Q { =.c._.H a.x.N.-.$.Q $.{ $.O.6.w.$.x.Z.m H f.6.{ -.",
"-.Q $.$.1.1.6.$.1.6.O.Q [ -.$.$.-.$.8.1.8.=.8.Q H -.[ $.Q 6.1.Q / { =.[ i.6.R 8.i.Z.P H =.-.N.D Q / / O.[ / 6.-.w.a.$.P 6.-.O.[ ",
"-.f.1.-./ [ Q $.O.w.=.w.i.=./ O.8.[ =.$.O.{ -.$./ / [ -.$.$.O.=.-.1.$.i.6.{ 6.[ w.c.C P 6.1.-.N.i.=.=.$.8.1.6.1.6.i.i.R / { =.O.",
"O.$./ / O.R O.{ P 1.=.O.[ O.8./ / { -.{ O.{ O./ 8.-./ R { P 6.i.6.1.O.[ 6.[ [ z R H i D P 1.a.Z.i.8.$.=.-.$.$.w.f.i.a.H =.O.=.[ ",
"=.w.$.$.6.[ =.O.O.{ P $.8.Q O.$.=.8.=.8.i.6.w.-.-.6.6.{ z O.$.$.=.6.6.=.=.=.6.Q $.{ C b P { 8.$.w.-.-.1.[ =.6.=.-.c.N.p m P { $.",
"6.=.6.1.{ { Q { $.$.[ / [ { O.{ [ { [ =.$.8.1.=.[ =.1.6.1.b D -.O.i.1.6.=.O.8.8.c.=.m j D -.-.w.1.-.1.w.i.O.{ 6.i.f.i./ / 1.8.-.",
"O.6.-./ $.6.-.[ =.O./ { O.O.=.6.1.=.{ 6.-.$.6.i.-.=.w.i.N.N./ 6.$.{ [ [ O.O.a.-.i.O.P P p H 1.a.8.-.$.{ 1.=.$.R 6.x.1.j p H $.$.",
"=.-.=.6.-.O.8.-.-.1.$.{ $.$.-.$.8.-.-.[ =.-.O.-.-.1.=./ 1.-.-.{ 6.O.8.6.8.1.w.{ O.C j p z C D $.i.i.w.8.w.1.-.O./ -.P D i j C 1.",
"j j P P b C C -./ D m H p r p j b p j C [ / R Q =./ Q 6.C O.P H P j C Q z b P R Q H Q =.z > , b C D D / [ R P m b j m C m 3 r j ",
"C , O * > , , , > r * > * p O $ i , 3 i > > $ 3 * 9 > C , $ $ $ * p * $ * > $ 9 H P R C D b 9 * 3 > , 3 9 z Q m r R b j C D > 9 "
};
