/* XPM */
static char *acea0c89d8c741a9cc400c92d0efc0capUbgDlMWQifihdvB[] = {
/* columns rows colors chars-per-pixel */
"64 64 179 2 ",
"   c gray9",
".  c gray10",
"X  c #1E1E1E",
"o  c gray12",
"O  c #202020",
"+  c gray13",
"@  c #222222",
"#  c #232323",
"$  c gray14",
"%  c #252525",
"&  c gray15",
"*  c #272727",
"=  c #282828",
"-  c gray16",
";  c #2A2A2A",
":  c gray17",
">  c #2C2C2C",
",  c #2D2D2D",
"<  c gray18",
"1  c #2F2F2F",
"2  c gray19",
"3  c #313131",
"4  c #323232",
"5  c gray20",
"6  c #343434",
"7  c #353535",
"8  c gray21",
"9  c #373737",
"0  c gray22",
"q  c #393939",
"w  c #3A3A3A",
"e  c gray23",
"r  c #3C3C3C",
"t  c gray24",
"y  c #3E3E3E",
"u  c #3F3F3F",
"i  c gray25",
"p  c #414141",
"a  c gray26",
"s  c #434343",
"d  c #444444",
"f  c gray27",
"g  c #464646",
"h  c gray28",
"j  c #484848",
"k  c #494949",
"l  c gray29",
"z  c #4B4B4B",
"x  c #4C4C4C",
"c  c gray30",
"v  c #4E4E4E",
"b  c gray31",
"n  c #505050",
"m  c #515151",
"M  c gray32",
"N  c #535353",
"B  c gray33",
"V  c #555555",
"C  c #565656",
"Z  c gray34",
"A  c #585858",
"S  c gray35",
"D  c #5A5A5A",
"F  c #5B5B5B",
"G  c gray36",
"H  c #5D5D5D",
"J  c gray37",
"K  c #5F5F5F",
"L  c #606060",
"P  c gray38",
"I  c #626262",
"U  c gray39",
"Y  c #646464",
"T  c #656565",
"R  c gray40",
"E  c #676767",
"W  c #686868",
"Q  c DimGray",
"!  c #6A6A6A",
"~  c gray42",
"^  c #6C6C6C",
"/  c #6D6D6D",
"(  c gray43",
")  c #6F6F6F",
"_  c gray44",
"`  c #717171",
"'  c #727272",
"]  c gray45",
"[  c #747474",
"{  c gray46",
"}  c #767676",
"|  c #777777",
" . c gray47",
".. c #797979",
"X. c gray48",
"o. c #7B7B7B",
"O. c #7C7C7C",
"+. c gray49",
"@. c #7E7E7E",
"#. c gray50",
"$. c #808080",
"%. c #818181",
"&. c gray51",
"*. c #838383",
"=. c #848484",
"-. c gray52",
";. c #868686",
":. c gray53",
">. c #888888",
",. c #898989",
"<. c gray54",
"1. c #8B8B8B",
"2. c gray55",
"3. c #8D8D8D",
"4. c #8E8E8E",
"5. c gray56",
"6. c #909090",
"7. c gray57",
"8. c #929292",
"9. c #939393",
"0. c gray58",
"q. c #959595",
"w. c gray59",
"e. c #979797",
"r. c #989898",
"t. c gray60",
"y. c #9A9A9A",
"u. c #9B9B9B",
"i. c gray61",
"p. c #9D9D9D",
"a. c gray62",
"s. c #9F9F9F",
"d. c #A0A0A0",
"f. c gray63",
"g. c #A2A2A2",
"h. c gray64",
"j. c #A4A4A4",
"k. c #A5A5A5",
"l. c gray65",
"z. c #A7A7A7",
"x. c gray66",
"c. c #A9A9A9",
"v. c #AAAAAA",
"b. c gray67",
"n. c #ACACAC",
"m. c gray68",
"M. c #AEAEAE",
"N. c #AFAFAF",
"B. c gray69",
"V. c #B1B1B1",
"C. c #B2B2B2",
"Z. c gray70",
"A. c #B4B4B4",
"S. c gray71",
"D. c #B6B6B6",
"F. c #B7B7B7",
"G. c gray72",
"H. c #B9B9B9",
"J. c gray73",
"K. c #BBBBBB",
"L. c #BCBCBC",
"P. c gray74",
"I. c gray",
"U. c gray75",
"Y. c #C0C0C0",
"T. c #C1C1C1",
"R. c gray76",
"E. c #C3C3C3",
"W. c gray77",
"Q. c #C5C5C5",
"!. c #C6C6C6",
"~. c gray78",
"^. c #C8C8C8",
"/. c gray79",
"(. c #CACACA",
"). c #CBCBCB",
"_. c gray81",
"`. c #D0D0D0",
"'. c gray82",
/* pixels */
"{ { Y M o.'.P.h.y.y.{ a z ;.y.p.z.q.y.y.q.y.q.q.O.$ b 0 8.N.z.q.) S V %.N.N.c.U V b b M { y.q.y.q.5.q.>.~ > b J o.O.) _ ~ _ _ o.",
": 0 u z V 8.y.8.5.q.O.a b ;.q.y.8.8.5.5.8.5.q.{ M b U q.P.).A.N.z.p.h.c.N.c.z.q.q.O.S z b O.q.q.5.8.O.a a Y J J z 0 5 : : $ : : ",
") J z b b ;.y.5.5.;.o.z b b %.;.8.p.8.8.;.;.;.V 6 { C.P.P.N.c.A.h.z.z.z.h.p.q.p.y.8.O.M b S ;.5.>.M M u _ z.z.8.Y z f b b Y ) { ",
"y.{ M z z h.q.5.%._ u U ;.b 0 { %.o.O.>.O.M 5 u b p.C.C.z.h.z.8.y.h.q.y.p.y.y.p.y.8.5.o.M M ~ { u u S q.K.C.C.5.Y M M M ~ 8.C.y.",
"y.>.V a M J q.5.o.: S c.q.q.{ M M a 0 > b b a b b %.h.c.q.y.p.y.q.p.p.y.y.h.N.C.q.8.>.>.>.{ z b b z p.K.P.z.z.>.~ z z p.c.A.A.p.",
"q.8.8.f b V h.p.%.$ V q.y.y.O.z b b z J ~ q.8.J b M p.y.p.q.q.p.p.y.z.y.q.y.y.q.8.>.8.8.5._ b b M p.A.C.y.h.8.5.~ b z._.Q.K.q.p.",
"8.5.5.;.z M 5.8.O.M M ~ S U J M V _ O.P.y.h.p.>.U V o.q.q.>.y.8.q.8.q.q.q.p.8.5.5.8.;.8.8._ z U p.C.N.z.p.p.5.;.Y M 5.Q.K.z.p.p.",
">.8.8.;.6 V N.8.O.z z z 6 6 0 b J K.K.C.z.p.q.q.o.z V O.8.5.8.8.5.q.O.;.%.;.5.8.q.5.5.>.o.z U p.N.A.c.p.y.c.8.>.Y z y.A.C.p.y.p.",
"5.5.q.;.z J A.5.%.# b b S %.>.z b 5.N.h.y.8.8.8.>._ b J >.o.{ %.O.%.{ { b ~ ;.%.J u 0 ~ 0 u { N.N.h.y.p.5.C.5.>.Y b p.N.h.q.y.h.",
"8.5.y.;.b S z.;.6 z z ~ C.C.p._ M U 5.8.5.8.5.O.q.) z M > : _ z $ $ u f M M M u z z b z b b U 5.h.y.q.p.z.q.5.%.Y b q.q.y.q.5.8.",
"5.>.{ { M z V z f z ~ Q.).R.h.;.z 6 U _ ) _ O.8.;.) U b z M M S S b S S S V z J V M b b z M b ) _ q.5.5.8.q.>.q.~ z 5.p.q.>.5.5.",
"S U z J M M u u z S K.R.K.N.K.y.{ U M 5 u u > a a : f S ~ ~ ) C.N.h.p.z.p.h.;.p.h.q.~ M M f z 0 U U J M { q.5.;.M M Y O.>.;.O.S ",
"5 M U J b z M b J ;.N.A.C.c.h.z.z.%.o.{ _ o.{ M M b z { C.K.N.K.A.C.A.C.C.c.c.A.c.q.q.J b ;.y.%.Y f > 0 z U Y a a f M Y z b S u ",
"M 8.N.p.{ M z b S ;.A.c.p.y.q.y.y.;.>.y.y.5.%.J z b { A.).P.C.A.N.h.h.y.z.p.p.q.c.q.8.;.z { K.h.q.~ Y b S 8.8.o.) J z b u a z M ",
"S A.P.A.q.{ b b b J p.8.p.p.y.y.y.5.8.q.8.q.5.J b b ~ c.A.N.N.y.y.p.p.y.y.q.p.N.C.q.5.>.O.U 8.p.o.U u b z A.).N.z.p.y.p.q.y.;.M ",
"M N.C.p.y.q.O.S b z %.y.q.y.p.p.z.q.8.5.5.8.q.o.b z ) z.c.h.q.y.q.q.p.p.c.y.y.N.q.5.8.8.o.b ) %.~ $ ) O.z h.A.C.C.C.y.y.h.q.%.u ",
"V q.y.p.q.5.>.o.S z S ;.5.>.;.;.>.;.5.5.5.8.5.~ b b V %.8.5.5.5.5.>.5.8.;.;.;.;.;.>.5.y.{ 0 Y O.5 U q.) M 8.z.z.p.q.h.8.5.8.O.0 ",
"b U { 8.5.O.;.J 6 b M Y { { ~ V M _ >.;.5.;._ b f M b M S ~ J M f u a M ~ ~ Y V M S O.;._ > V ) V U q.;.S 5.q.8.5.q.8.>.q.q.%.> ",
"z b M ) ;.o.: u f z z M V M V z f V V f b S V f M f z M z V b a a f a f z z M z f z V M S a b b b V O.J a { ;.O.8.5.%.O.O.O.o.# ",
"V b M b $ > z b M z M z z z z M M b M b M J J b b M _ y.y.8.>.O.M z M c.c.p.q.p.8.;.) z M b z b b b M M b b b M M 5 #   # $ u b ",
">.>.b V f z %.h.q.V z ) p.c.h.y.p.q.p.p.5._ M f V N.).R.N.p.y.p.>.V b Q.R.P.N.C.c.p.p.%.5.J z J 8.R.c.5.U b J M M M S 5.z.8.q.S ",
"q.y.) V b U Q.z.p.;.b U C.Q.P.A.C.c.z.z.8.) u a %.).R.c.p.y.p.8.%.f b K.C.C.C.c.h.q.y.q.y.Y z { P.).N.5.U z >.%.V ;.C.N.N.h.y.8.",
"8.8.>._ M q.K.c.q.O.a Y N.K.C.z.h.h.p.y.q.O.b f p.K.N.z.y.y.p.8.O.0 b C.N.h.y.q.q.p.q.y.>.~ f o.K.N.z.>.V S h.q.Y { C.A.C.z.y.p.",
"5.8.>.%.M h.N.y.q.{ a ~ c.C.p.y.y.q.p.y.5.>.U b p.N.p.q.y.p.q.q.;.b S h.y.y.y.q.q.8.5.5.8.{ S ;.C.z.y.>.V p.C.5.b _ A.C.c.p.5.q.",
"5.>.5.%.M q.h.q.8.o.z U ;.p.p.y.q.y.y.q.q.>.J b p.y.y.y.p.y.5.>.%.b b %.5.8.5.5.5.5.5.q.{ { b _ y.p.5.O.S 5.N.5.z 0 8.N.h.p.y.8.",
"5.5.>.O.b >.q.8.O.~ : z J ) >.y.y.y.q.q.%.;.U b 5.p.h.8.>.5.5.o.0 f M M o.o.%.>.5.q.%.~ $ 6 S >.y.y.5.Y f q.c.8._ V ) h.y.8.5.>.",
"q.%.~ V V ~ Y ~ V 5 : b a > >.8.5.y.8.5.>.5.V f ~ 5.>.O.5.8.5.S S 5._ z V Y U ~ U J M 5 { ;.C.z.p.5.>.S u ~ 5.;.O.J M 8.>.5.8.q.",
"O.u 0 J o._ { ;.o.o.{ U J b U %.O.%.;.O.>.o.z f b S V o.O.O.o.J %.c.q.J b b ) %.{ _ _ V c.p.8.q.>.8.8.V f V _ b S b f J b { ;.;.",
"5 f _ c.R.).C.N.c.C.z.q.5.b b 6 > : : u ~ b # a b O.b a : 0 : u { q.y.O.b b y.Q.z.p.;.M U ;.O.O.o.O.o.Y b z V f z b b M z M u 5 ",
"b ~ C.'.A.N.z.y.p.q.8.y.;.O.M b b b b b f M z b Q.Q.;.U M z p.U b { O.%.Y O.C.A.N.y.;.S b z z z 5 o $ a z z b M _ p.y.8.O.V z b ",
"b { R.K.c.p.p.y.y.y.8.5.%._ M M U Y _ y.c.8.U f { p.o.V p.R.N.;.Y V 0 # 6 U K.N.y.q.o.b J Y Y U J S b U ;.y.O.z %.).A.N.h.y.;.b ",
"b ~ C.C.p.y.y.p.p.y.8.p.O.a z o.R.Q.R.C.C.y.%.Y M Y U z A.P.C.q.8._ J V b b y.p.p.q.O.S y.P.R.C.z.p.~ y.y.8._ z >.R.C.N.5.y.%.0 ",
"z Y z.C.y.y.p.z.h.y.5.8.;.0 b O.Q.K.A.A.c.q.;.>.~ b S o.C.A.h.p.y.q.8.Y b ~ 8.p.h.>.O.V z.K.A.N.z.y.O.p.h.5._ M q.A.c.y.y.q.O.> ",
"M S q.y.q.p.q.p.8.8.8.8.5._ f Y K.A.A.N.h.q.8.y._ M b o.h.p.y.y.y.p.8.{ b >.h.y.%.>.O.S 8.z.p.y.y.q.>.q.q.y.{ U z.z.y.q.q.5.%.: ",
"z b S ;.q.5.5.8.5.8.8.%._ > V J N.N.z.p.y.y.y.q.o.u b Y q.y.p.y.q.q.>.U 0 ) O.) o._ o.S >.q.5.5.5.8.8.q.y.5._ J y.p.y.q.8.>.O.# ",
"V S J 0 ) J >.) Y J U M : b b V N.c.p.y.y.p.p.8.o.> b J >.>.;.5.5.5.q.O.S z > : # $ # f V U ) ~ ~ _ ~ Y { _ 6 S Y { >.>.5.) J 0 ",
"b N.y.{ b 6 U M 6 > 5 u V ;.Y S h.h.y.p.y.h.y.q.{ $ z O._ M V M M M S U S Y M b b J S M f z z b b z f b S z z b z M U b V u u z ",
"S N.C.;.S b b z b b b b %.y.;.V y.y.q.p.y.h.8.8.{ o M S M u 0 0 6 u f f J 8.%.6 U 5.;.V q.5.y.O.O.~ J V J M V b b f b 0 u f b b ",
"S A.P.y.5.>.;.U b M b b _ %.O.J h.y.y.p.y.z.8.8.o.5 ;.~ z M N.5.8.>.O.M V { o.: p.N.5.0 h.).A.z.y.O.a ~ S %.5.O.y.;.>.>.>.O.~ z ",
"M z.z.h.p.p.>.J a q.q.) b { b S h.q.y.y.q.c.5.8._ > O.M 5.).).P.C.N.y.>.S a f a y.y.;.: z.Q.A.h.8.) 5 S %.N.A.A.C.N.h.y.y.q.O.f ",
"V z.z.q.p.;.o.J S Q.R.q.~ V : M >.5.8.>.;.q.5.q.{ $ z O.R.).Q.C.N.p.y.y.5.) M z ;.>.{ b C.A.z.p.y._ 5 ) c.).P.A.A.c.y.y.q.8.O.V ",
"V p.q.q.5.>.Y b q.R.C.y.y.;.Y z S Y U ~ S J J M V $ b _ K.K.N.z.y.q.q.z.p.5.Y b S ~ M z z.C.z.y.8.{ u _ N.C.A.z.z.h.p.y.8.8.O.f ",
"M >.;.q.5.y.S 0 5.P.h.y.8.8.;.) M z M z z z f 0 u 0 J _ z.A.z.y.h.p.y.c.q.8.o.) M b f o.C.C.y.q.5.{ f ) N.z.h.p.y.p.y.q.p.q.o.: ",
"M f f _ >.O.Y f ;.p.;.5.q.5.;.{ U b V f M b z M V >.~ { p.y.y.y.q.y.q.z.q.8.O.{ z b 5.N.N.y.h.q.q.~ b o.y.y.p.y.y.h.y.q.5.5.o.$ ",
"O.b b f o Y a b ) { { _ ~ { { a : a _ C.C.c.h.y.p.;.V ~ y.q.>.5.5.8.8.q.y.h.;.U V { b %.y.{ 5.y.q.{ u ) 8.q.5.8.8.>.q.q.5.%.) u ",
"y.q._ b b Y u M a a z b b f V S V M o.z.8.5.8.>.>.>.M 0 O.>.5.>.>.>.;.;.5.5.%._ J ;.V U S Y Y ) ) ~ > S ~ ~ Y _ >.8.;.c.5.{ 0 { ",
"y.5.~ M { A.p.o.V f { O.O.{ h.O.Y z Y Y J M M z V a u u U Y M b b b V S J M M U M J M f z 6 u z z f a M 5 5 a a O.>.5.%.o.a V z.",
"q.>.U b ;.C.y.%.S 5.K.Q.K.p.8._ b b z z b u 0 u 6 f 0 f b z a u 0 u u a z a 0 f b b S { o.O.%.;.%.O.%.~ _ _ b M b J J V u f c.z.",
"8.8.V a ~ y.8.b f q.A.A.c.p.8.) z y.>.Y b ~ p.h.h.h.5.q.5.>.O.U b z M M V J J V M b { R.R.).K.C.C.z.y.q.8.o.b z b a V z f _ p.8.",
"5.>.O.S b { 5.V u N.K.z.p.8.8.~ 6 q.5.{ b ~ z.K.K.R.R.C.A.p.q._ S %.C.R.N.z.8.p.~ M h.).).Q.h.p.q.q.p.y.>.o.S N.c.h.M z b U 5.q.",
"5.>.z z b f _ J U C.c.y.p.q.5.Y 6 { 8.O.b U >.5.8.y.y.p.5.y.>.%.V _ ).C.y.8.z.q.Y 5 ;.).K.y.c.y.p.p.y.8.8.O.a N.p.>.~ > M b Y %.",
"o.b z { _ U 0 0 q.N.z.h.p.5.;.) 6 V b S z M U U J >.>.5.y.>.%._ b J z.p.8.q.q.8.) M %.z.y.8.y.y.p.y.5.>.p.o.$ ) ;.J 0 S _ J z Y ",
"S a f ;.;.O.J 0 O.h.h.q.8.q.5.Y > a u >.%.%.{ M a Y _ M f S f $ 0 b 5.%.O.q.y.8.o.U %.p.8.q.5.5.>.5.q.h.N.O.. M b u f 5.K.5.{ Y ",
";.~ f V z # 5 b o.y.8.5.8.>.5.) $ O.C.Q.R.N.p.y.O.f b f f z z z b b V z V z.c.8.O.Y { o.O.5.8.>.8.5.8.8.5.O.o b z a 8.).c.y.p.8.",
">.~ z z V V M f z o.>.5.5.8.q.~ 6 8._.A.A.C.z.8.o.Y b >.h.h.q.q.q.8.O.M o.5.5.8.U > Y { U _ _ _ _ ) ) ) _ _ > M V ;.C.N.p.y.y.q.",
"5.S 6 U q.y.~ f J u z ) ~ J J M S P.K.N.c.p.y.8._ > ~ N.Q.R.A.C.C.h.{ M U O._ ) a z M b > : $ $ : : $ # : $ : ~ A.N.c.y.p.y.p.5.",
">.S 6 >.C.h.8.U Y 5 b f f 6 5 6 o.c.c.h.y.p.8.q.o.$ S 8.N.A.c.z.z.y.o.u V J J b 0 b Y _ U z b { { { { _ { Y z Y K.C.y.y.y.y.8.8.",
";.U 6 y.A.p.q.U f J ;.O.S b ~ b U 8.y.y.p.y.q.q.{ : z _ A.p.p.y.q.8.{ 0 p.%.) M J { U %.u M 5.K.K.N.h.z.h.O.5 Y h.p.q.q.8.q.y.;.",
"z : M 5.z.p.8.U V h.N.5.~ ;.q._ b Y 5.8.5.5.q.%.$ a b Y 8.q.p.q.y.8.{ 6 z.q.) f p.5.J b b p.c.K.A.C.z.p.q.%.o J %.o.{ { O._ o.o.",
"M b b %.h.y.O.M 0 N.q.%.Y z.%.O.U 0 Y %.8.;.o.{ 0 Y ) M M O.y.p.z.8.o.5 y.;.: M c.>.V V p.A.z.y.y.8.5.y.y.;.o b 5 # # o $ o # f ",
"J U b %.>._ U a z 5.o.U f U { M 5 a u V Y z U V b V o.S f ) o.>.5.8._ $ U M J c.p.>.b ) 8.;.q.q.q.8.q.5.{ U > z M b S Y J U Y U ",
"y.>.~ z Y V 6 u b U U > u b { _ _ _ ) _ o._ ~ U b f z V U M z U { >.J : V J 5.y.8.;.M M J ) Y U S U ~ V 0 6 u M J >.y.N.y.8.h.p.",
"5.5.U a z b z V z ) M b Y ;.P.K.N.A.P.c.z.c.z.>.;.) M { ;.z M z f 5 f z z ~ O.O.O.o.V z O.%.%.%.;.O.%.%.o.M b J p.N.p.p.p.8.8.8.",
"y.8.U M y.h.R.R.C.q.) 6 ) p.z.p.p.p.h.y.h.p.h.p.%.{ U %.a S { M z b b z a : : $ # > a M c.C.N.C.C.C.h.q.;.M z J p.q.p.8.5.q.y.y."
};
