/* XPM */
static char *ff6ce38cf47041baf948d0d5e60bd55cvt24yM33muXljhLg[] = {
/* columns rows colors chars-per-pixel */
"64 64 161 2 ",
"   c black",
".  c #010101",
"X  c #020202",
"o  c gray1",
"O  c #040404",
"+  c gray2",
"@  c #060606",
"#  c #070707",
"$  c gray3",
"%  c #090909",
"&  c gray4",
"*  c #0B0B0B",
"=  c #0C0C0C",
"-  c gray5",
";  c #0E0E0E",
":  c gray6",
">  c #101010",
",  c #111111",
"<  c gray7",
"1  c #131313",
"2  c gray8",
"3  c #151515",
"4  c #161616",
"5  c gray9",
"6  c #181818",
"7  c #191919",
"8  c gray10",
"9  c #1B1B1B",
"0  c gray11",
"q  c #1D1D1D",
"w  c #1E1E1E",
"e  c gray12",
"r  c #202020",
"t  c gray13",
"y  c #222222",
"u  c #232323",
"i  c gray14",
"p  c #252525",
"a  c gray15",
"s  c #272727",
"d  c #282828",
"f  c gray16",
"g  c #2A2A2A",
"h  c gray17",
"j  c #2C2C2C",
"k  c #2D2D2D",
"l  c gray18",
"z  c #2F2F2F",
"x  c gray19",
"c  c #313131",
"v  c #323232",
"b  c gray20",
"n  c #343434",
"m  c #353535",
"M  c gray21",
"N  c #373737",
"B  c gray22",
"V  c #393939",
"C  c #3A3A3A",
"Z  c gray23",
"A  c #3C3C3C",
"S  c gray24",
"D  c #3E3E3E",
"F  c #3F3F3F",
"G  c gray25",
"H  c #414141",
"J  c gray26",
"K  c #434343",
"L  c #444444",
"P  c gray27",
"I  c #464646",
"U  c gray28",
"Y  c #484848",
"T  c #494949",
"R  c gray29",
"E  c #4B4B4B",
"W  c #4C4C4C",
"Q  c gray30",
"!  c #4E4E4E",
"~  c gray31",
"^  c #505050",
"/  c #515151",
"(  c gray32",
")  c #535353",
"_  c gray33",
"`  c #555555",
"'  c #565656",
"]  c gray34",
"[  c #585858",
"{  c gray35",
"}  c #5A5A5A",
"|  c #5B5B5B",
" . c gray36",
".. c #5D5D5D",
"X. c gray37",
"o. c #5F5F5F",
"O. c #606060",
"+. c gray38",
"@. c #626262",
"#. c gray39",
"$. c #646464",
"%. c #656565",
"&. c gray40",
"*. c #676767",
"=. c #686868",
"-. c DimGray",
";. c #6A6A6A",
":. c gray42",
">. c #6C6C6C",
",. c #6D6D6D",
"<. c gray43",
"1. c #6F6F6F",
"2. c gray44",
"3. c #717171",
"4. c #727272",
"5. c gray45",
"6. c #747474",
"7. c gray46",
"8. c #767676",
"9. c #777777",
"0. c gray47",
"q. c #797979",
"w. c gray48",
"e. c #7B7B7B",
"r. c #7C7C7C",
"t. c gray49",
"y. c #7E7E7E",
"u. c gray50",
"i. c #808080",
"p. c #818181",
"a. c gray51",
"s. c #838383",
"d. c #848484",
"f. c gray52",
"g. c #868686",
"h. c gray53",
"j. c #888888",
"k. c #898989",
"l. c gray54",
"z. c #8B8B8B",
"x. c gray55",
"c. c #8D8D8D",
"v. c #8E8E8E",
"b. c gray56",
"n. c #909090",
"m. c gray57",
"M. c #929292",
"N. c #939393",
"B. c gray58",
"V. c #959595",
"C. c gray59",
"Z. c #979797",
"A. c #989898",
"S. c gray60",
"D. c #9A9A9A",
"F. c #9B9B9B",
"G. c gray61",
"H. c #9D9D9D",
"J. c gray62",
"K. c #A0A0A0",
"L. c gray65",
/* pixels */
"# # # ..Z 6.%.m { P / 0.O.{ ' { h ' { ..O.Z R H O...{ H R P P H b H { ! { R %.0...0./ F ..h 4 P P ' o o # o o 0 / O.{ ' H t # # ",
"c.V.h.s.k.k.r...P ;./ %.V.c.k.h.h.s.s.3.k.k.k.0.s.m.s.s.3.c.h.h.h.V.Z H / ' h 1.1.' ' ! R { ;...%.R Z %.' 0.%.;.%.{ { r.V.s.k.s.",
"0.%.O.3.r.;.6.k.a %.' %...6.6.3...O.' ;.;.1.O.h.F 6.;.;.0.O.1.R 6.' r.H R H 3.V.h.m.1.0.3.s.6.6.6.0.3.s.r.r.r.{ P ..{ 0.6.' ' ;.",
"P 0.R O.O.0.1.6.b ' ! O.r.;.;.' s.H O...s.3.r.6.1.0.1.0.3.6.6.1.%.0.%.4 h ! r./ 6...1.3.F ' 3.O.3.1./ s./ s.%.;.O.m o 1.3.;.3.R ",
"3.O.1.6.H 0.1.0.t R r.O.1.3.3.0.m O.' 1.;.6.' O.R 6.6.3.{ 3...6.0.O.' a o : 1.;.;.3.O./ k.{ 0.3.0.P s.F P ;.b b ! 1.m ' { ' %.6.",
"s.O.0.k.r.;.1.%.8 { 3.%.H 0.6.3.s.%.r.6.O.%.k.1.{ 6.;.%.! 1.%.! 1.a 1.: a F { r.3.3.0.1.;...3.%.0.;...;.F 3.P l ! ! R r.s.P 6.s.",
"3.0.6...6.s.0.Z R H 3.s...0.r.;.6.H 6.%.0.r.3.6.H Z / / 1.6.s.h.s.3.6.P 8 l %.0.F 3.3.6.1.h.r.3...1.r.! H ! R R o 4 R ..0.;.6.6.",
"r.3.;.0./ ;.;.R R { 1.3.s.O.6.s.O.3.O.1...1.;.0...6.O.s...O.%.{ r.! %.F ! Z ;.s.;.1.r.;.r.;.1.0.6./ r.%.6.%.! ! 1.t R r.1.6.1.{ ",
";.s.1.! s.3.s.l %.6...r...6.%.6.3.0.6.F 3.%.0.O.3.%.1.O.1.0.r.0.6.6.3...;.' F ;.O.O.;.3.O.1.%.O./ ;.1.%.R %.R / F t ! ..r.%.0.6.",
"0.O.r.6.;.0.s.m # O.h.1.3.O.3./ 6.H 3.O.3.%.s.O.0.../ O.b 6.3.s.3.1.6.;.;.{ a ' ;.r.6...s.s.;.%.1.%.0.6.%.8 F ! { m a 1.3.{ 1.3.",
"6.3.;.6.1.{ ;.8 6.$ ..%.;.O.R 6.O.6.r.R %.6.3.O.;.3.;.1 o ....6.O.3.O.' ;.O.$ 1 a ! %.s.1.6.s.6.s...r.h 4 # o { ..{ ! ! 1...' %.",
"o o o o o o o / m 1 # 8 1 8 1 o o ! 8 8 o o o # o o o # # ;.h.o # o o / %.! t o o o o o 4 ..O.P 1 o o o # o t : ..O.0.o o o o o ",
"o o o o o $ o ' ..' # # o o o o o o o o # o # o o o o o o o o o o o m ' m ..H b o o o o o o o o o o o o # $ P O.P 8 0 # o o o o ",
"/ m Z / h / 3.H R %.O.%.' { R ! r.3.;.l b ;.R / R ;.;...# %.6.{ %.1.! ! l 0 o O.P P %.' b : # l F R o h o o 8 8 O.{ P ' l H R l ",
"H ' ;.F ;.{ ! / r.S.m.c.6.r.6.s.r.k.V.m.k.r.' F ' %.! a c.6.;.1.s.r./ s.s.h.h.%.h.6.h.s.c.V.S.Z ' F H b c.r.! s.h.s.c.S.s.S.c.;.",
"k.s.1 m b h.S.k.6.1.0.3...;.%.s.6.0.s.r.%.;.6.k.' H %./ ;.O.;.0.3.1.3.O.;.0.3.6.6.r.1.r.0.0.s.0.%.{ %.s./ P 1...1.%.;.%.s.%.H { ",
"r.6.O.%.P s.0.r.0.6.3.R ' 1.6.3.3.6.1.s.0.3.r.3.3.4 ' m ;.O.' h.1.6.1.3.0.1.0.h.O.3.O.%.{ O.3.r.l ;.%.' O.H { F ..r.6.0.1.6.O.1.",
"/ 1.l ! H 0.%.6.6.6.3.0.0.O.0.6.O.0.s.r.r.0.;.0.0.P b t 3.3.{ %.1...s.3.3.s.r.0.r.' 6.6.O.6.%./ ../ H 3.;.! Z / F ;.s...1.R O.h.",
"6.1.1 ' ;.0.;.3.;.6.%.6.0.;.0.6.;.;.h.0.;.r.r.{ ;.{ O.H 3.1.0.1.r.;.O...6.6.1.3.3.;.0.%.1.' 0.3./ ! m %.;.! 3.r.%.! O.6.%.1.%.;.",
"{ Z m 1 ..r.3.1.r.r.3.c.%.6.h...h.;.3.0.0.0.0...3.{ 1.h 3.1.O.6.6.6.3.s.%.r.1.3.3.r.;.1.h.h.;.6.H 0 P 1.O.3.O.{ 3...%.1.0.s.6.;.",
"6.h P t l ;.r.6.O.;.0.{ s.0.;.0.3.r.0.6.3.1.r.;.r.R 6.3.s.%.s.s.6.3.0.1.;.3.3.1.;.O.0.%.1.1.;.6.m { b 1.1...6.;.1.s.1.6.;.%.O.;.",
"b $ a t 4 6.3.r.0...1.%.O.1.%.1.s.;.3.6.3.0.6.%.;./ { F %.O.O.%.3.3.3.s.;.6.0.r.{ 3.O.%.6.3.1.6.F / t 1 / ;.r.;.3.6.{ R { 0.3.3.",
"o h R ..' ..0.1.6.r.;.1.3.O.3.../ 6.{ %...! 1./ ..o / %.F 1.6.3.0.3.1.;.6.6.%.r.s.6.3.s.6.r.3.R t / Z 1 ..6...3./ %.6.%.{ 0.P o ",
"o ..{ { H o o # # o 1 o o o o o o # o o o o o o o a Z O.o o o o o o a { 3.F O.3.O.%.s.6.3.H Z o # R P o # o o F b 3.H l m 8 o o ",
"{ m { ' l : o o o o o o # o o o o o o # o # o o o F / { ;.# o o o o o o o o o o o o o o # o o o O.O.m # o o o o # o o o o o o : ",
"..{ m Z Z l ! R m / H ;.{ H b a a b L.c.S.S.V.V.V.S.c.G.c.c.S.V.m.O.' 8 o o o o o # o o o o 4 { h P P b ' ' ! a o o $ $ 8 H 3.{ ",
"..H P ;.r.6...! / ..l 4 ;.' R F F 6.k.1.1.1.%.6.3.s.;.3.;.1.s.1.k.3.0.h.V.S.V.4 ! { ..O.%.' h.m %.O.' 6.P Z 8 ..%.! b F F / { R ",
"6.h.s.s.s.0.h.h.k.h.c.m.%.4 O.O.O.0.1./ ;.1.r.r.3.O.0.1.6.1.O.6.1.;.s.1.m.6.0.m.1 m F ......F / s.h.3.0.h.s.r.1.0.h.S.c.V.h.c.h.",
"1.O.r.1.O.;.1.3.6.6.1.6.;.$ t 8 1.s.0.s.;.O.1.%.O.3.3.6.0.;.0.P 3.6.O.1.;.0.1.s.0 1 b O...4 c.6.%.;.%...3.0.3./ ;.6.3.{ 3.6.k.%.",
"..0.r.1.s.r.1.3.6.r.s.3...l F R %.6.O.3.h.{ 0.3./ 3.' 1.0.s.O.0.6.;.0.3.1.1.3.3.0.{ ..! 1 k.m.6.6.r.%.;.%.{ 0.3.%.6./ { ;.;.6.1.",
"0.6.%.0.r.3.3.0.3.;.1.3.;.m ! ..0.;.s.1.6.' %.h.6.6.s.0.s.O.3.1.0.3.h.r.%.%.1.r.;.R %.%.%.s.s.%.6.r.;.0.O.%.;.3.0.s.1...r.%.3.6.",
"r.6.1.r.3.0.1.6.;.0.1.6.1 ' P R 6.' 6.;.;.3.P 0.{ m ;.%.3.0.%.s.6.3.%.s.6.3.1.6./ ' %.H r.3.3.r.0.0.%.1.O.6.s.0.3.;.r.%.;.../ H ",
"6.%.3.0.3.;.O.0.6.0.;.0.$ 1.! ! O.r.1./ ..1...%.6.r.3...6.6.1.s.r.6.3...3.0.r.%.o l F 1.0.%.0.6.r.H ;.3.3.' / r.r.s.3.1.;.3.{ 1.",
"%.3.1.6.h.3.s.s.;.3.r.3.b ' / Z s.3.s.3.0./ 1.O.O.{ O.O.3.{ 6.{ ;.r.k.0.3.r.s.F h ;...l H 1.3.3.3.H 1.1.;.3.R 3.3.6.' %.6.;.s.O.",
";.6.6.3.6.O.0.6.%.r.1.s.{ Z ' 3.0.3.h.1.0.1.%.r.6.3.' s.1.1.s.0.6.;.%.r.1.O.o o 1.3.1 s.1.3.0.;.6.0.O.%.O.{ ..F s.O.r.1.%.3.O.{ ",
"O.0.h.s.1.6.s.;.0.6.O.s.F 4 1.R ! ;.O.s.6.6.1.r.O.h.%.O.3.0.3.0.%.0.3...3.1.o 8 o # P H s.1.%.%.6.3.;.6.6.%.;.1.Z %.6.6.r.;.;.6.",
"%.0.;.;...;.' 4 o o # o H %.O.1.o 1.0.O.6.3.;.6.3.0.1.0.! 3.;.%.0.r.0.O.;.0.h a P O.h o ;.b m ..%.1.b 6.b %.P 3.P F : ' ' 1.3.3.",
"o # o o # o o o o o o o ..3.F H 4 / 6.{ 1...;.P / ;...1.0.%.' 3.O.' b # # o ' m ;.! R # o o # o o o o o o # # o $ o o o # o # o ",
"o o # o o o a r.3...3.R { / ../ ..# o o o o o o o o o # o o # o o o o o o 1 O...h H m O.# o # o o o # o o o # o o $ a o o o o o ",
"O.m.S.G.S.V.V.c.m 6.3.;.R a P 6.r...o o o o $ : o o o o o # o o o a / ! l F %.;.Z H 4 %.! h a h %.P ! m ! ! / Z R R o 0 1.{ ! %.",
"k.h.k.k.V.h.m.h.k.c.m.V.1...1.m ' ! m.S.S.c.0.s.c.m.V.! b l R m ..S.V.V.m.k.s.6.k.k.s.k.c.c.k.k.;.: a c.' k.k.l H o 0 %.P %.S.V.",
"%.F 1.1.0.r.r.r.0.h.s.k.6.3.r.%.P 6.h.h.;.6.6.s.1.0.;.r.l / 4 R k.k.c.;.h.6.r.3.r.r.3.3.O.0.O.P r.c.%.0.1.a R 0.4 F Z R { O.0.0.",
"..1.r.O.r.h.r.6.0.c.r.k.6.b P H H k.3.O.0.0...%.6.r.3.1.H { a / 0.0.1.0.0.r.3.3.3.3.r.1.1.%.3.h.;.1.0.! 6.0.3.m %.P / ;./ ..%.1.",
"O.O.s.1.;.6.h.6.s.0.c.k.1./ $ o P 3.0.6.' 0.s.1.1.....0.R ! %.h 0.0.r.6...{ ;.s.1.0.m h.1...r.r.k.0 ;.1.3.0.%.1.{ P a 1.6.;.6.O.",
";.6.r.0.6.%.3.0.0.6.0.6.1...3.O.R 6.6.h.;.;.6.0.6.;.O.3.F ' ' { 3.1...0.0.6.t ..6.P %.;.0.6.h...t ' k.;.;.r...R ..R o P b %.6.3.",
"%.0.6.r.6.3.0.0.3.1.k.c.{ R H P ' ;.r.6.6.6...r.6.;.O.3.Z ' ! o { 6.s.Z 6.r.6.1.;.s.0.h.1.m F h.: k.1.! 3.%.O.1.{ 1.%.l P 0.O.r.",
"1.;.6.r.1.0.;.r.r.r.0.s.6./ / m t 6.6.h.0.1.s.3.6...1.;.F %.3.1 1.O...1.6.3.r.' ;.%.r.t 3.s.r./ R r.s.0.6.1.r.%.3.# / l $ s.r.0.",
"..3.%.0.1.3.3.s.r.;.1.6.;./ F ' H %.6.1.3.R 6...s.%.1.3.1.R F l o 1.6.3.3.1.%.;./ %.6.0.1.h.O.h.3...6.%.' 1.1.H o l { ;.Z 1.3.0.",
"1.0.0.r.1.%.%.0.3.1.6.3.%.P %.O.! 3.1.;.1.6.;.6.%.1.' 1.3.6.' H o o o 1 m 0 1 h.%.;.R 1.%.;.! R ' 6.;.m o o o o o a 0 m a m ;.;.",
"1.;.' o Z { m 4 $ o # m 0 / R Z R ;.;.3...O.O.' O...3.6.{ ! O./ / o o o # o o o # o # 8 R H o o # o o o o o Z o b Z / / R H R 1.",
"# # o o # o # o o o o o # 6.H 8 o o 8 b o o # o o o o l ../ F P H ' R a 4 F ' a o o o o o o o o o # o : { F H H h F F # H o o o ",
"o o H R o # o 8 0 l F o P Z h H a # o o o # o l l a o $ o ;.6.{ 4 F O.O.t H ' ' ..{ H m 8 F $ F 6...$ F H ' O.Z 8 R ..;...4 : o ",
"K.S.G.V.K.S.m.h.k.h.c.c.h.c.m.P Z P ;...0.h.h.V.V.m.m.c.m.m.s.r.s.0.6.s.s.0.%.r.h.r.{ F O.R ..6.h ! k.c.k.%.0.s.r.1.h.1.c.m.G.G.",
"k.3.h.6.6.s.h.6.%.r.0.h.6.k.k.;.! P 1.s.s.;.r.6.;.O.6.r.s.6.%.1.1.;.%.;.O.O.%.;.;.h.1.H %.b P P 1.c.h.r.s.1.0.3.6.s.O.r.3.r.;.6.",
";.0.O.0.r.;.1.6.r.0.{ ;./ k.c.k.1.! b O.1.m F 6.0...;.%.;.r.;.H ;.%.0.s.6.s.1.0.3.1.3.R ! ' %...t h.%.3.6.r.3.r...O.s.6...r.r.0.",
"6.O.s.1.r.h.3.s.6.s.1.s.%.;.c.c.0.O.4 F 6.0.{ 0.O.r.1.3.0.0.H 3.{ h.0.O.;.3.%.O.O.3.k.6.P %.F 3.{ O.6.6.O.;...r.3.%.1.s.3.s.0.1.",
"r.%.1.O.0.%.%.6.O.h.%.O.r.r.%.3.0.{ %.o %.h.;.0.%.s.1.r...;.%.{ 6.r.3.{ ' r.R / 6.....3.o R F / h.s.%.H r.%.0.6.3.O.6.%.6.3.;.s.",
"3.r.r.;.O.k.%.0.h.s.3.r.1.;.O.1.r.O...P b r.H %.0.3.1.s.F r.1.r.6.6.;.k.6.6.;.%.0.3.1.{ / 4 h %.1.0.h.r.6.3.6.%...6.0.s.! 3.3.;.",
"1.6.3.r.0.1.h.s.h.s.s.0.%.s.1.r.{ F F R o ! r.0.0.0.s.1.;.1.6.{ r.1.O.0...h.0.F ..6.%.1.' l 0 ..6.O.O./ 6.%.h.' ;.s.' 1.h.%.s.1.",
"1.;.r.0.;.0.0.k.r.6.3.3.1.;.{ s.%.0.r.;.' 0.r...1.s.s.6.r.%.1.6.6.3.6.1.r.%.0.1.;.6.3.0.' H b r./ ;.6.0.0.h.3.6.' 1.O...%.;.r.3.",
"%.1.%.O.0.3.3.1.6.s.3.1.3.0.h.6.O.1 O./ ! 1.O.;.6.r.6...1.O.h.3.1...6.1.s.6.6.r.0.r.6.;.{ 1.Z 3...{ 1.%.6.s.3.r.r.1.;.r.;.1.;.;.",
"1.0.;.%.%.s.3.3.6.r.s.6.s.6.;.0.! # m H t ;.%.O.;.0.{ 0.R ..O.;.! 0.h.O.3.{ 6.3.' 6.%.1 1.1 # Z ;.1.6.3.Z ;.6.0.;.s.O.r.1.r.3.6.",
"4 1 8 1 b o ' ! { : 4 # o # o o o h / ! m $ 4 o o o $ o o : o # o o o o o o o o o o o o ....h # ..o # # b / ;.3./ ! ' H ! R / P ",
"o o o o o # o o o o o o o o o o o P P 4 P o o o o o o # o o o o o o o o o o o # o o o { ' P ;.o o o o o # o o o o # o o o o o o "
};
